<svg width="1.25rem" height="1.25rem" viewBox="0 0 20 20" fill="none" 
  xmlns="http://www.w3.org/2000/svg">
  <path d="M6.29289 7.00004L2.00002 2.70711L2.70712 2L6.99999 6.29293L6.99999 4.00004H7.99999L7.99999 8.00004L3.99999 8.00004V7.00004L6.29289 7.00004Z" fill="currentColor"/>
  <path d="M13.7071 7.00004H16V8.00004H12V4.00004H13V6.29293L17.2928 2.00008L18 2.70718L13.7071 7.00004Z" fill="currentColor"/>
  <path d="M6.99999 13.7071L2.70718 18L2.00008 17.2929L6.29288 13H3.99999V12H7.99999V16H6.99999V13.7071Z" fill="currentColor"/>
  <path d="M13 13.7071L13 16H12L12 12L16 12V13L13.7071 13L18 17.2929L17.2928 18L13 13.7071Z" fill="currentColor"/>
</svg>
