<svg width="1rem" height="1rem" viewBox="0 0 20 20" fill="none" 
  xmlns="http://www.w3.org/2000/svg">
  <path d="M11.4033 18H18V16.8957C17.1601 16.7548 16.525 16.5903 15.9923 16.3084L16.0333 4.04405C16.5864 3.76212 17.1601 3.62115 18 3.45668V2H11.4033V3.45668C12.2638 3.59765 12.9603 3.8326 13.5749 4.16153L13.5954 9.14244H6.40461L6.4251 4.16153C7.01921 3.85609 7.71575 3.59765 8.59667 3.45668V2H2V3.45668C2.59411 3.55066 3.45455 3.73862 3.96671 3.90308L4.02817 16.3084C3.45455 16.5903 2.81946 16.7313 2 16.8957V18H8.59667V16.8957C7.71575 16.7548 6.97823 16.5198 6.38412 16.1909L6.40461 10.6931H13.5954L13.6159 16.1909C13.0013 16.5198 12.2638 16.7548 11.4033 16.8957V18Z" fill="currentColor"/>
</svg>
