<svg width="1.25rem" height="1.25rem" viewBox="0 0 20 20" fill="none" 
  xmlns="http://www.w3.org/2000/svg">
  <path fill-rule="evenodd" clip-rule="evenodd" d="M14.2909 13.5838C16.6783 10.8338 16.5646 6.66505 13.9498 4.05025C11.2161 1.31658 6.78398 1.31658 4.05031 4.05025C1.31664 6.78392 1.31664 11.2161 4.05031 13.9497C6.66511 16.5645 10.8339 16.6782 13.5838 14.2909L17.293 18L18.0001 17.2929L14.2909 13.5838ZM13.2427 4.75736C15.5858 7.10051 15.5858 10.8995 13.2427 13.2426C10.8996 15.5858 7.10057 15.5858 4.75742 13.2426C2.41427 10.8995 2.41427 7.10051 4.75742 4.75736C7.10057 2.41421 10.8996 2.41421 13.2427 4.75736Z" fill="#010024"/>
</svg>
