<svg width="1.25rem" height="1.25rem" viewBox="0 0 20 20" fill="none"
  xmlns="http://www.w3.org/2000/svg">
  <path d="M10 19L8 17L12 17L10 19Z" fill="currentColor"/>
  <circle cx="10" cy="10" r="5.5" stroke="#010024"/>
  <path d="M3.63608 16.364L3.63608 13.5356L6.46451 16.364L3.63608 16.364Z" fill="currentColor"/>
  <path d="M16.364 16.3639L13.5356 16.3639L16.364 13.5355L16.364 16.3639Z" fill="currentColor"/>
  <path d="M19 10L17 12L17 8L19 10Z" fill="currentColor"/>
  <path d="M1 10L3 8L3 12L1 10Z" fill="currentColor"/>
  <path d="M3.63602 3.63608L6.46444 3.63608L3.63602 6.46451L3.63602 3.63608Z" fill="currentColor"/>
  <path d="M16.3639 3.63602L16.3639 6.46444L13.5355 3.63602L16.3639 3.63602Z" fill="currentColor"/>
  <path d="M10 1L12 3H8L10 1Z" fill="currentColor"/>
</svg>
