<svg width="1.25rem" height="1.25rem" viewBox="0 0 20 20" fill="none"
  xmlns="http://www.w3.org/2000/svg">
  <path d="M2 18H10.7213C14.9399 18 18 16.5433 18 13.4655C18 11.3275 16.4262 9.94126 13.847 9.54185V9.49486C15.6831 9.09545 17.1475 8.01469 17.1475 6.08811C17.1475 3.31571 14.3934 2 10.5902 2H2V4.32599C2.48087 4.41997 3.39891 4.63143 3.81421 4.77239L3.85792 15.5565C3.33333 15.8385 2.76503 16.0029 2 16.1439V18ZM8.36066 15.768V11.116L10.5683 11.069C13.0164 11.022 13.235 11.3979 13.235 13.442C13.235 15.5565 12.9071 15.768 11.0055 15.768H8.36066ZM8.36066 8.69603V4.51395L10.5683 4.46696C12.0328 4.44347 12.3825 4.70191 12.3825 6.558C12.3825 8.32012 12.1639 8.69603 10.5902 8.69603H8.36066Z" fill="currentColor"/>
</svg>
