<svg width="1.25rem" height="1.25rem" viewBox="0 0 20 20" fill="none"
  xmlns="http://www.w3.org/2000/svg">
  <path d="M7 7V5H5V7H7Z" fill="currentColor"/>
  <path d="M9 5H11V7H9V5Z" fill="currentColor"/>
  <path d="M15 7V5H13V7H15Z" fill="currentColor"/>
  <path d="M7 9V11H5V9H7Z" fill="currentColor"/>
  <path d="M11 9H9V11H11V9Z" fill="currentColor"/>
  <path d="M15 9V11H13V9H15Z" fill="currentColor"/>
  <path d="M7 15V13H5V15H7Z" fill="currentColor"/>
  <path d="M9 13H11V15H9V13Z" fill="currentColor"/>
  <path d="M15 15V13H13V15H15Z" fill="currentColor"/>
  <path fill-rule="evenodd" clip-rule="evenodd" d="M7 1H6V2H2V18H18V2H14V1H13V2H7V1ZM13 4V3H7V4H6V3H3V17H17V3H14V4H13Z" fill="currentColor"/>
</svg>
