<svg width="1.25rem" height="1.25rem" viewBox="0 0 20 20" fill="none"
  xmlns="http://www.w3.org/2000/svg">
  <path fill-rule="evenodd" clip-rule="evenodd" d="M0.592781 10.9572C2.55495 13.8188 5.69537 15.747 9.27794 15.9769C9.50185 15.9913 9.72749 15.999 9.95468 15.9999L10.0001 16C10.3943 16 10.7838 15.9795 11.1678 15.9394C14.9467 15.5448 18.1881 13.2559 20.0001 10C18.2165 6.79495 15.0477 4.52698 11.3446 4.08051C10.9036 4.02734 10.4549 4 10.0001 4C9.75758 4 9.51678 4.00778 9.27794 4.0231C9.03744 4.03853 8.79893 4.06161 8.56264 4.09212C5.27904 4.51606 2.42321 6.37329 0.59276 9.04277C0.493813 9.18707 0.397861 9.33377 0.305 9.48274C0.305044 9.48277 0.304956 9.48272 0.305 9.48274C0.199295 9.65232 0.0974655 9.82476 -9.15527e-05 10.0001C0.132772 10.2388 0.273333 10.4723 0.421223 10.7003C0.42112 10.7002 0.421326 10.7003 0.421223 10.7003C0.477263 10.7867 0.534658 10.8724 0.592781 10.9572ZM2.38523 11.6385C4.30976 13.711 7.01013 15 10.0001 15C12.9895 15 15.6893 13.7116 17.6137 11.6399C15.2672 12.6065 12.6965 13.1397 10.0012 13.1397C7.30461 13.1397 4.73267 12.606 2.38523 11.6385ZM18.8458 9.95983C16.9538 6.9721 13.6985 5 10.0001 5C6.30206 5 3.04704 6.97174 1.15496 9.959C3.79702 11.3515 6.80706 12.1397 10.0012 12.1397C13.1947 12.1397 16.2042 11.3518 18.8458 9.95983Z" fill="currentColor"/>
</svg>
