<svg width="1rem" height="1rem" viewBox="0 0 16 16" fill="none"
  xmlns="http://www.w3.org/2000/svg">
  <path d="M1.50507 7.28823L1.51826 7.30378C2.93519 8.97299 4.26289 10.3034 5.43337 11.475L5.46671 11.5084C6.42612 12.4688 7.29284 13.3364 8 14.1929C8.70721 13.3363 9.574 12.4687 10.5335 11.5082L10.5666 11.4751C11.7371 10.3034 13.0648 8.97306 14.4817 7.30393L14.4949 7.28839L14.5094 7.27397C15.8302 5.95304 15.8302 3.81148 14.5094 2.49074L14.5094 2.49072C13.1885 1.16981 11.047 1.16981 9.72615 2.49072L9.72613 2.49074L8.35361 3.86317L8.00007 4.21669L7.64652 3.86316L6.27388 2.49058C6.27387 2.49058 6.27387 2.49058 6.27387 2.49058C4.953 1.1698 2.81147 1.16981 1.49062 2.49058M1.50507 7.28823L1.49062 2.49058M1.50507 7.28823L1.49064 7.27381C0.169786 5.95289 0.169786 3.81148 1.49062 2.49058M1.50507 7.28823L1.13708 2.13702L1.49062 2.49058" stroke="black"/>
</svg>
