<svg width="1rem" height="1rem" viewBox="0 0 16 16" fill="none"
  xmlns="http://www.w3.org/2000/svg">
  <path fill-rule="evenodd" clip-rule="evenodd" d="M12.2909 11.5838C14.6783 8.83382 14.5645 4.66505 11.9498 2.05025C9.21608 -0.683417 4.78392 -0.683417 2.05025 2.05025C-0.683418 4.78392 -0.683418 9.21607 2.05025 11.9497C4.66505 14.5645 8.83384 14.6782 11.5838 12.2908L15.2929 16L16 15.2929L12.2909 11.5838ZM11.2426 2.75736C13.5858 5.1005 13.5858 8.89949 11.2426 11.2426C8.8995 13.5858 5.10051 13.5858 2.75736 11.2426C0.414214 8.89949 0.414214 5.1005 2.75736 2.75736C5.10051 0.414214 8.8995 0.414214 11.2426 2.75736Z" fill="currentColor"/>
</svg>
