<svg width="0.75rem" height="0.75rem" viewBox="0 0 13 12" fill="none"
  xmlns="http://www.w3.org/2000/svg">
  <path d="M2 0.5H1V5.5H6V2.5H9V3.5H10V1.5H5V4.5H2V0.5Z" fill="currentColor"/>
  <path d="M11 0.5H12V5.5H7V3.5H8V4.5H11V0.5Z" fill="currentColor"/>
  <path d="M1 6.5V7.5H5V10.5H1V11.5H6V6.5H1Z" fill="currentColor"/>
  <path d="M7 6.5V11.5H12V10.5H8V7.5H12V6.5H7Z" fill="currentColor"/>
  <path d="M4 8.5V9.5H1V8.5H4Z" fill="currentColor"/>
  <path d="M9 8.5V9.5H12V8.5H9Z" fill="currentColor"/>
  <path d="M4 0.5H3V3.5H4V0.5Z" fill="currentColor"/>
</svg>
