<svg width="0.75rem" height="0.75rem" viewBox="0 0 12 12" fill="none"
  xmlns="http://www.w3.org/2000/svg">
  <path fill-rule="evenodd" clip-rule="evenodd" d="M10 0H9V1H8V2H7V3H8V4H9V5H10V4H11V3H12V2H11V1H10V0ZM9 3V2H10V3H9Z" fill="currentColor"/>
  <path d="M7 5H8V4H7V5Z" fill="currentColor"/>
  <path d="M5 6V7H6V8H4V11H5V12H7V11H8V8H7V5H6V6H5Z" fill="currentColor"/>
  <path d="M4 5V6H5V5H4Z" fill="currentColor"/>
  <path fill-rule="evenodd" clip-rule="evenodd" d="M1 4H0V3H1V2H2V1H3V2H4V3H5V4H4V5H3V6H2V5H1V4ZM3 3H2V4H3V3Z" fill="currentColor"/>
</svg>
