<svg width="0.75rem" height="0.75rem" viewBox="0 0 12 12" fill="none"
  xmlns="http://www.w3.org/2000/svg">
  <path fill-rule="evenodd" clip-rule="evenodd" d="M7 3H8V4H9V5H10V7H9V6H8V7H9V8H8V9H7V10H5V9H6V8H5V9H4V8H3V7H2V5H3V6H4V5H3V4H4V3H5V2H7V3ZM7 3V4H6V3H7Z" fill="currentColor"/>
  <path fill-rule="evenodd" clip-rule="evenodd" d="M5 0V1H4V0H3V1H4V2H2V1H1V2H2V4H1V3H0V4H1V5H0V7H1V8H0V9H1V8H2V10H1V11H2V10H4V11H3V12H4V11H5V12H7V11H8V12H9V11H8V10H10V11H11V10H10V8H11V9H12V8H11V7H12V5H11V4H12V3H11V4H10V2H11V1H10V2H8V1H9V0H8V1H7V0H5ZM7 2V1H5V2H4V3H3V4H2V5H1V7H2V8H3V9H4V10H5V11H7V10H8V9H9V8H10V7H11V5H10V4H9V3H8V2H7Z" fill="currentColor"/>
</svg>
